# xmcd
#
# Track frame offsets: 
#        150
#        21242
#        46318
#        60499
#        66321
#        81992
#        85542
#
# Disc length: 1548 seconds
#
# Revision: 0
# Processed by: cddbd v1.5.2PL0 Copyright (c) Steve Scherf et al.
# Submitted via: ExactAudioCopy v1.3
#
DISCID=52060a07
DTITLE=Bror Gunnar Jansson - And the great unknown (Pt. I)
DYEAR=2017
DGENRE=Blues Rock
TTITLE0=Spiritual
TTITLE1=Day-night
TTITLE2=Ukulele Blues
TTITLE3=Ritual
TTITLE4=At the dinner
TTITLE5=Gone and away
TTITLE6=War tubas
EXTD=
EXTT0=
EXTT1=
EXTT2=
EXTT3=
EXTT4=
EXTT5=
EXTT6=
PLAYORDER=
